<mxfile host="app.diagrams.net" modified="2024-05-02T20:16:57.843Z" agent="Mozilla/5.0 (Windows NT 10.0; Win64; x64) AppleWebKit/537.36 (KHTML, like Gecko) Chrome/124.0.0.0 Safari/537.36" etag="fdZuVvXdaS4z7yifRTEV" version="24.3.1" type="device">
  <diagram name="Page-1" id="nPNj5pSEh6qLSEwJrH_P">
    <mxGraphModel dx="1363" dy="797" grid="1" gridSize="10" guides="1" tooltips="1" connect="1" arrows="1" fold="1" page="1" pageScale="1" pageWidth="827" pageHeight="1169" math="0" shadow="0">
      <root>
        <mxCell id="0" />
        <mxCell id="1" parent="0" />
        <mxCell id="P_e-UUZTg2o9pou4E7iB-1" value="&lt;span style=&quot;font-size: 15px;&quot;&gt;Json files&lt;/span&gt;" style="shape=note;whiteSpace=wrap;html=1;backgroundOutline=1;darkOpacity=0.05;fillColor=#dae8fc;strokeColor=#6c8ebf;strokeWidth=3;align=center;labelPosition=center;verticalLabelPosition=bottom;verticalAlign=top;" vertex="1" parent="1">
          <mxGeometry x="130" y="68" width="80" height="100" as="geometry" />
        </mxCell>
        <mxCell id="P_e-UUZTg2o9pou4E7iB-2" value="&lt;span style=&quot;font-size: 15px;&quot;&gt;temp/pickle file&amp;nbsp;&lt;/span&gt;" style="shape=note;whiteSpace=wrap;html=1;backgroundOutline=1;darkOpacity=0.05;fillColor=#f8cecc;strokeColor=#b85450;strokeWidth=3;align=center;labelPosition=center;verticalLabelPosition=bottom;verticalAlign=top;size=25;" vertex="1" parent="1">
          <mxGeometry x="10" y="68" width="80" height="100" as="geometry" />
        </mxCell>
        <mxCell id="P_e-UUZTg2o9pou4E7iB-3" value="&lt;span style=&quot;font-size: 15px;&quot;&gt;PY files&lt;/span&gt;" style="shape=note;whiteSpace=wrap;html=1;backgroundOutline=1;darkOpacity=0.05;fillColor=#d5e8d4;strokeColor=#82b366;strokeWidth=3;align=center;labelPosition=center;verticalLabelPosition=bottom;verticalAlign=top;" vertex="1" parent="1">
          <mxGeometry x="250" y="68" width="80" height="100" as="geometry" />
        </mxCell>
        <mxCell id="P_e-UUZTg2o9pou4E7iB-4" value="&lt;font style=&quot;font-size: 15px;&quot;&gt;User/ Client&lt;/font&gt;" style="shape=image;html=1;verticalAlign=top;verticalLabelPosition=bottom;labelBackgroundColor=#ffffff;imageAspect=0;aspect=fixed;image=https://cdn2.iconfinder.com/data/icons/css-vol-2/24/laptop-128.png" vertex="1" parent="1">
          <mxGeometry x="360" y="60" width="98" height="98" as="geometry" />
        </mxCell>
        <mxCell id="P_e-UUZTg2o9pou4E7iB-13" value="&lt;span style=&quot;font-size: 20px;&quot;&gt;&lt;b&gt;Chatbot structure diagram&lt;/b&gt;&lt;/span&gt;" style="text;html=1;align=center;verticalAlign=middle;whiteSpace=wrap;rounded=0;fontFamily=Helvetica;fontSize=11;fontColor=default;labelBackgroundColor=default;" vertex="1" parent="1">
          <mxGeometry x="510" y="128" width="260" height="30" as="geometry" />
        </mxCell>
        <mxCell id="P_e-UUZTg2o9pou4E7iB-16" value="" style="edgeStyle=orthogonalEdgeStyle;rounded=0;orthogonalLoop=1;jettySize=auto;html=1;strokeWidth=3;" edge="1" parent="1" source="P_e-UUZTg2o9pou4E7iB-14" target="P_e-UUZTg2o9pou4E7iB-15">
          <mxGeometry relative="1" as="geometry" />
        </mxCell>
        <mxCell id="P_e-UUZTg2o9pou4E7iB-14" value="&lt;font style=&quot;font-size: 15px;&quot;&gt;User/ Client&lt;/font&gt;" style="shape=image;html=1;verticalAlign=top;verticalLabelPosition=bottom;labelBackgroundColor=#ffffff;imageAspect=0;aspect=fixed;image=https://cdn2.iconfinder.com/data/icons/css-vol-2/24/laptop-128.png" vertex="1" parent="1">
          <mxGeometry x="270" y="241" width="98" height="98" as="geometry" />
        </mxCell>
        <mxCell id="P_e-UUZTg2o9pou4E7iB-18" value="" style="edgeStyle=orthogonalEdgeStyle;rounded=0;orthogonalLoop=1;jettySize=auto;html=1;strokeWidth=3;" edge="1" parent="1" source="P_e-UUZTg2o9pou4E7iB-15" target="P_e-UUZTg2o9pou4E7iB-17">
          <mxGeometry relative="1" as="geometry" />
        </mxCell>
        <mxCell id="P_e-UUZTg2o9pou4E7iB-15" value="&lt;span style=&quot;font-size: 15px;&quot;&gt;Chatbot.py&lt;/span&gt;" style="shape=note;whiteSpace=wrap;html=1;backgroundOutline=1;darkOpacity=0.05;fillColor=#d5e8d4;strokeColor=#82b366;strokeWidth=3;align=center;labelPosition=center;verticalLabelPosition=bottom;verticalAlign=top;" vertex="1" parent="1">
          <mxGeometry x="458" y="240" width="80" height="100" as="geometry" />
        </mxCell>
        <mxCell id="P_e-UUZTg2o9pou4E7iB-17" value="&lt;span style=&quot;font-size: 15px;&quot;&gt;data.pth&lt;/span&gt;" style="shape=note;whiteSpace=wrap;html=1;backgroundOutline=1;darkOpacity=0.05;fillColor=#f8cecc;strokeColor=#b85450;strokeWidth=3;align=center;labelPosition=center;verticalLabelPosition=bottom;verticalAlign=top;size=25;" vertex="1" parent="1">
          <mxGeometry x="630" y="240" width="80" height="100" as="geometry" />
        </mxCell>
        <mxCell id="P_e-UUZTg2o9pou4E7iB-19" value="&lt;span style=&quot;font-size: 15px;&quot;&gt;intents.JSON&amp;nbsp;&lt;/span&gt;" style="shape=note;whiteSpace=wrap;html=1;backgroundOutline=1;darkOpacity=0.05;fillColor=#dae8fc;strokeColor=#6c8ebf;strokeWidth=3;align=center;labelPosition=center;verticalLabelPosition=bottom;verticalAlign=top;" vertex="1" parent="1">
          <mxGeometry x="630" y="400" width="80" height="100" as="geometry" />
        </mxCell>
        <mxCell id="P_e-UUZTg2o9pou4E7iB-20" style="edgeStyle=orthogonalEdgeStyle;rounded=0;orthogonalLoop=1;jettySize=auto;html=1;entryX=0;entryY=0.575;entryDx=0;entryDy=0;entryPerimeter=0;strokeWidth=3;" edge="1" parent="1" source="P_e-UUZTg2o9pou4E7iB-15" target="P_e-UUZTg2o9pou4E7iB-19">
          <mxGeometry relative="1" as="geometry">
            <Array as="points">
              <mxPoint x="584" y="290" />
              <mxPoint x="584" y="458" />
            </Array>
          </mxGeometry>
        </mxCell>
        <mxCell id="P_e-UUZTg2o9pou4E7iB-22" value="&lt;span style=&quot;font-size: 15px;&quot;&gt;model.py&lt;/span&gt;" style="shape=note;whiteSpace=wrap;html=1;backgroundOutline=1;darkOpacity=0.05;fillColor=#d5e8d4;strokeColor=#82b366;strokeWidth=3;align=center;labelPosition=center;verticalLabelPosition=bottom;verticalAlign=top;" vertex="1" parent="1">
          <mxGeometry x="630" y="570" width="80" height="100" as="geometry" />
        </mxCell>
        <mxCell id="P_e-UUZTg2o9pou4E7iB-23" style="edgeStyle=orthogonalEdgeStyle;rounded=0;orthogonalLoop=1;jettySize=auto;html=1;entryX=0.01;entryY=0.596;entryDx=0;entryDy=0;entryPerimeter=0;strokeWidth=3;" edge="1" parent="1" source="P_e-UUZTg2o9pou4E7iB-15" target="P_e-UUZTg2o9pou4E7iB-22">
          <mxGeometry relative="1" as="geometry">
            <Array as="points">
              <mxPoint x="584" y="290" />
              <mxPoint x="584" y="630" />
            </Array>
          </mxGeometry>
        </mxCell>
        <mxCell id="P_e-UUZTg2o9pou4E7iB-24" value="&lt;span style=&quot;font-size: 15px;&quot;&gt;textprocessing.py&lt;/span&gt;" style="shape=note;whiteSpace=wrap;html=1;backgroundOutline=1;darkOpacity=0.05;fillColor=#d5e8d4;strokeColor=#82b366;strokeWidth=3;align=center;labelPosition=center;verticalLabelPosition=bottom;verticalAlign=top;" vertex="1" parent="1">
          <mxGeometry x="458" y="570" width="80" height="100" as="geometry" />
        </mxCell>
        <mxCell id="P_e-UUZTg2o9pou4E7iB-25" style="edgeStyle=orthogonalEdgeStyle;rounded=0;orthogonalLoop=1;jettySize=auto;html=1;entryX=0.995;entryY=0.751;entryDx=0;entryDy=0;entryPerimeter=0;strokeWidth=3;" edge="1" parent="1">
          <mxGeometry relative="1" as="geometry">
            <mxPoint x="540" y="290" as="sourcePoint" />
            <mxPoint x="540.9999999999999" y="630.0999999999999" as="targetPoint" />
            <Array as="points">
              <mxPoint x="584" y="290" />
              <mxPoint x="584" y="630" />
              <mxPoint x="541" y="630" />
            </Array>
          </mxGeometry>
        </mxCell>
      </root>
    </mxGraphModel>
  </diagram>
</mxfile>
